g HG_Prop_Boxes
v 0.8513979 0.2080777 -0.8514027
v -0.8513952 0.2080832 0.8514019
v -0.8514066 0.2080825 -0.8514027
v 0.8513979 0.2080813 0.8514019
v 0.8513979 0.2080813 0.8514019
v -0.8513914 5.054344E-06 0.8514018
v -0.8513952 0.2080832 0.8514019
v 0.8514017 3.146995E-06 0.8514018
v 0.8513979 0.2080777 -0.8514027
v 0.8514017 3.146995E-06 0.8514018
v 0.8513979 0.2080813 0.8514019
v 0.8514017 -4.051813E-07 -0.8514028
v 0.8513979 0.2080777 -0.8514027
v -0.8514066 0.2080825 -0.8514027
v -0.8514028 4.36319E-06 -0.8514028
v 0.8514017 -4.051813E-07 -0.8514028
v -0.8514066 0.2080825 -0.8514027
v -0.8513952 0.2080832 0.8514019
v -0.8513914 5.054344E-06 0.8514018
v -0.8514028 4.36319E-06 -0.8514028
v -0.7319504 1.284016 -0.8199151
v 0.7300636 1.284051 -0.8199422
v 0.7300407 1.284041 0.8198905
v -0.7319618 1.284003 0.8199177
v -0.7319618 1.284003 0.8199177
v 0.7300407 1.284041 0.8198905
v 0.729995 0.212185 0.8199153
v -0.7320076 0.2121469 0.8199425
v 0.7300407 1.284041 0.8198905
v 0.7300636 1.284051 -0.8199422
v 0.7300178 0.2121954 -0.8199174
v 0.729995 0.212185 0.8199153
v -0.7319504 1.284016 -0.8199151
v 0.7300178 0.2121954 -0.8199174
v 0.7300636 1.284051 -0.8199422
v -0.7319962 0.2121602 -0.8198903
v -0.7319618 1.284003 0.8199177
v -0.7319962 0.2121602 -0.8198903
v -0.7319504 1.284016 -0.8199151
v -0.7320076 0.2121469 0.8199425
vt 0.5279006 0.5585325
vt 0.5555896 0.5308438
vt 0.5279006 0.5308438
vt 0.5555896 0.5585325
vt 0.5555896 0.5585325
vt 0.5589727 0.5308438
vt 0.5555896 0.5308438
vt 0.5589727 0.5585325
vt 0.5279006 0.5585325
vt 0.5555896 0.5619161
vt 0.5555896 0.5585325
vt 0.5279006 0.5619161
vt 0.5279006 0.5585325
vt 0.5279006 0.5308438
vt 0.5245171 0.5308438
vt 0.5245171 0.5585325
vt 0.5279006 0.5308438
vt 0.5555896 0.5308438
vt 0.5555896 0.5274601
vt 0.5279006 0.5274601
vt 0.5289135 0.5836553
vt 0.5289135 0.6074286
vt 0.555578 0.6074286
vt 0.555578 0.5836553
vt 0.555578 0.5836553
vt 0.555578 0.6074286
vt 0.5730062 0.6074286
vt 0.5730062 0.5836553
vt 0.555578 0.6074286
vt 0.5289135 0.6074286
vt 0.5289135 0.6248582
vt 0.555578 0.6248582
vt 0.5289135 0.5836553
vt 0.5114955 0.6074286
vt 0.5289135 0.6074286
vt 0.5114723 0.5836553
vt 0.555578 0.5836553
vt 0.5289135 0.5662282
vt 0.5289135 0.5836553
vt 0.555578 0.5662282
vn 0 1 0
vn 0 1 0
vn 0 1 0
vn 0 1 0
vn 0 0 1
vn 0 0 1
vn 0 0 1
vn 0 0 1
vn 1 1.8333E-05 0
vn 1 1.8333E-05 0
vn 1 1.8333E-05 0
vn 1 1.8333E-05 0
vn 0 0 -1
vn 0 0 -1
vn 0 0 -1
vn 0 0 -1
vn -1 -1.8333E-05 0
vn -1 -1.8333E-05 0
vn -1 -1.8333E-05 0
vn -1 -1.8333E-05 0
vn -2.503205E-05 1 0
vn -2.503205E-05 1 0
vn -2.503205E-05 1 0
vn -2.503205E-05 1 0
vn 1.859014E-05 2.313248E-05 1
vn 1.859014E-05 2.313248E-05 1
vn 1.859014E-05 2.313248E-05 1
vn 1.859014E-05 2.313248E-05 1
vn 1 -4.270727E-05 1.395736E-05
vn 1 -4.270727E-05 1.395736E-05
vn 1 -4.270726E-05 1.395736E-05
vn 1 -4.270726E-05 1.395736E-05
vn -1.856966E-05 -2.310468E-05 -1
vn -1.856966E-05 -2.310468E-05 -1
vn -1.856966E-05 -2.310468E-05 -1
vn -1.856966E-05 -2.310468E-05 -1
vn -1 4.270742E-05 0
vn -1 4.270742E-05 0
vn -1 4.270742E-05 0
vn -1 4.270742E-05 0
g HG_Prop_Boxes_0
f 3/3/3 2/2/2 1/1/1
f 2/2/2 4/4/4 1/1/1
f 7/7/7 6/6/6 5/5/5
f 6/6/6 8/8/8 5/5/5
f 11/11/11 10/10/10 9/9/9
f 10/10/10 12/12/12 9/9/9
f 15/15/15 14/14/14 13/13/13
f 13/13/13 16/16/16 15/15/15
f 19/19/19 18/18/18 17/17/17
f 17/17/17 20/20/20 19/19/19
f 23/23/23 22/22/22 21/21/21
f 21/21/21 24/24/24 23/23/23
f 27/27/27 26/26/26 25/25/25
f 25/25/25 28/28/28 27/27/27
f 31/31/31 30/30/30 29/29/29
f 29/29/29 32/32/32 31/31/31
f 35/35/35 34/34/34 33/33/33
f 34/34/34 36/36/36 33/33/33
f 39/39/39 38/38/38 37/37/37
f 38/38/38 40/40/40 37/37/37
