g HG_Part_D_L
v 0.00274842 21.4528 -11.51092
v 0.00274842 0.4062595 -9.885857
v 0.002769082 0.4062433 -11.5109
v 0.002686433 24.16108 -0.0007823347
v 3.228497E-07 2.861023E-06 -1.31889E-07
v 0.001384703 -5.722046E-06 -9.479272
v 0.002727757 24.16106 -8.802658
v 0.002686433 24.16108 -0.0007823347
v 2.464341 24.16111 -0.0004517365
v 2.461634 4.196167E-05 0.0003304662
v 3.228497E-07 2.861023E-06 -1.31889E-07
vt 0.09271252 0.6585348
vt 0.1032238 0.5224014
vt 0.09271279 0.5224014
vt 0.1671624 0.6760523
vt 0.1671675 0.5197736
vt 0.1058536 0.5197736
vt 0.1102302 0.6760523
vt 0.1671624 0.6760523
vt 0.1830855 0.6760548
vt 0.1830904 0.519776
vt 0.1671675 0.5197736
vn -1 0 0
vn -0.9999998 0.0006423164 -0.0001179201
vn -1 0 -1.271491E-05
vn -1 2.723148E-05 -7.25163E-05
vn -1 0.0001922113 -0.0002700838
vn -0.9999949 0.003210539 -0.000146045
vn -1 0 0
vn -0.0001343002 3.23895E-05 1
vn -0.0001343002 3.23895E-05 1
vn -0.0001343002 3.23895E-05 1
vn -0.0001343002 3.23895E-05 1
g HG_Part_D_L_0
f 3/3/3 2/2/2 1/1/1
f 2/2/2 4/4/4 1/1/1
f 2/2/2 5/5/5 4/4/4
f 2/2/2 6/6/6 5/5/5
f 4/4/4 7/7/7 1/1/1
f 10/10/10 9/9/9 8/8/8
f 8/8/8 11/11/11 10/10/10
